<svg width="183" height="60" viewBox="0 0 183 60" fill="none" xmlns="http://www.w3.org/2000/svg">
<path d="M68.8084 39.4954V39.9549H67.616V43.2861H67.0854V39.9549H65.8929V39.4954H68.8084ZM70.0529 42.9196C70.1732 42.9196 70.279 42.9178 70.3702 42.9142C70.465 42.9069 70.5434 42.8959 70.6054 42.8814V42.0335C70.5689 42.0153 70.5087 42.0007 70.4249 41.9897C70.3446 41.9752 70.2462 41.9679 70.1295 41.9679C70.0529 41.9679 69.9709 41.9733 69.8833 41.9843C69.7995 41.9952 69.7211 42.0189 69.6481 42.0554C69.5788 42.0882 69.5205 42.1356 69.4731 42.1976C69.4257 42.256 69.402 42.3344 69.402 42.4328C69.402 42.6151 69.4603 42.7428 69.577 42.8157C69.6937 42.885 69.8523 42.9196 70.0529 42.9196ZM70.0091 40.3706C70.2134 40.3706 70.3847 40.398 70.5233 40.4527C70.6655 40.5037 70.7786 40.5785 70.8625 40.677C70.95 40.7718 71.012 40.8866 71.0484 41.0216C71.0849 41.1528 71.1031 41.2987 71.1031 41.4592V43.2369C71.0594 43.2442 70.9974 43.2551 70.9172 43.2697C70.8406 43.2807 70.7531 43.2916 70.6546 43.3025C70.5561 43.3135 70.4486 43.3226 70.3319 43.3299C70.2188 43.3408 70.1058 43.3463 69.9927 43.3463C69.8323 43.3463 69.6846 43.3299 69.5497 43.2971C69.4147 43.2643 69.298 43.2132 69.1996 43.1439C69.1011 43.071 69.0245 42.9762 68.9698 42.8595C68.9151 42.7428 68.8878 42.6024 68.8878 42.4383C68.8878 42.2815 68.9188 42.1466 68.9808 42.0335C69.0464 41.9205 69.1339 41.8293 69.2433 41.76C69.3527 41.6907 69.4804 41.6397 69.6262 41.6068C69.7721 41.574 69.9253 41.5576 70.0857 41.5576C70.1368 41.5576 70.1897 41.5613 70.2444 41.5686C70.2991 41.5722 70.3501 41.5795 70.3975 41.5904C70.4486 41.5977 70.4923 41.605 70.5288 41.6123C70.5653 41.6196 70.5908 41.6251 70.6054 41.6287V41.4865C70.6054 41.4026 70.5963 41.3206 70.578 41.2404C70.5598 41.1565 70.527 41.0836 70.4796 41.0216C70.4322 40.9559 70.3665 40.9049 70.2826 40.8684C70.2024 40.8283 70.0967 40.8082 69.9654 40.8082C69.7976 40.8082 69.6499 40.821 69.5223 40.8465C69.3983 40.8684 69.3053 40.8921 69.2433 40.9176L69.1832 40.4964C69.2488 40.4673 69.3582 40.4399 69.5114 40.4144C69.6645 40.3852 69.8305 40.3706 70.0091 40.3706ZM72.4567 43.2861H71.948V40.4417H72.4567V43.2861ZM72.1997 39.9276C72.1085 39.9276 72.0301 39.8984 71.9644 39.84C71.9025 39.7781 71.8715 39.696 71.8715 39.5939C71.8715 39.4918 71.9025 39.4116 71.9644 39.3532C72.0301 39.2912 72.1085 39.2602 72.1997 39.2602C72.2908 39.2602 72.3674 39.2912 72.4294 39.3532C72.495 39.4116 72.5279 39.4918 72.5279 39.5939C72.5279 39.696 72.495 39.7781 72.4294 39.84C72.3674 39.8984 72.2908 39.9276 72.1997 39.9276ZM74.1849 43.3408C73.8713 43.3335 73.6488 43.2661 73.5175 43.1384C73.3863 43.0108 73.3206 42.8121 73.3206 42.5422V39.1289L73.8293 39.0414V42.4602C73.8293 42.544 73.8366 42.6133 73.8512 42.668C73.8658 42.7227 73.8895 42.7665 73.9223 42.7993C73.9551 42.8321 73.9989 42.8577 74.0536 42.8759C74.1083 42.8905 74.1758 42.9032 74.256 42.9142L74.1849 43.3408ZM77.338 41.8639C77.338 42.09 77.3052 42.2942 77.2395 42.4766C77.1739 42.6589 77.0809 42.8157 76.9606 42.947C76.8439 43.0783 76.7035 43.1804 76.5394 43.2533C76.3753 43.3226 76.1966 43.3572 76.0033 43.3572C75.81 43.3572 75.6313 43.3226 75.4672 43.2533C75.3031 43.1804 75.1609 43.0783 75.0406 42.947C74.9239 42.8157 74.8327 42.6589 74.7671 42.4766C74.7014 42.2942 74.6686 42.09 74.6686 41.8639C74.6686 41.6415 74.7014 41.4391 74.7671 41.2568C74.8327 41.0708 74.9239 40.9122 75.0406 40.7809C75.1609 40.6496 75.3031 40.5493 75.4672 40.48C75.6313 40.4071 75.81 40.3706 76.0033 40.3706C76.1966 40.3706 76.3753 40.4071 76.5394 40.48C76.7035 40.5493 76.8439 40.6496 76.9606 40.7809C77.0809 40.9122 77.1739 41.0708 77.2395 41.2568C77.3052 41.4391 77.338 41.6415 77.338 41.8639ZM76.8074 41.8639C76.8074 41.543 76.7345 41.2896 76.5886 41.1036C76.4464 40.914 76.2513 40.8192 76.0033 40.8192C75.7553 40.8192 75.5584 40.914 75.4125 41.1036C75.2703 41.2896 75.1992 41.543 75.1992 41.8639C75.1992 42.1848 75.2703 42.4401 75.4125 42.6297C75.5584 42.8157 75.7553 42.9087 76.0033 42.9087C76.2513 42.9087 76.4464 42.8157 76.5886 42.6297C76.7345 42.4401 76.8074 42.1848 76.8074 41.8639ZM79.1039 40.3816C79.1477 40.3816 79.1969 40.3852 79.2516 40.3925C79.31 40.3962 79.3665 40.4035 79.4212 40.4144C79.4759 40.4217 79.5251 40.4308 79.5689 40.4417C79.6163 40.449 79.6509 40.4563 79.6728 40.4636L79.5853 40.9067C79.5452 40.8921 79.4777 40.8757 79.3829 40.8575C79.2917 40.8356 79.1732 40.8246 79.0273 40.8246C78.9325 40.8246 78.8377 40.8356 78.7429 40.8575C78.6517 40.8757 78.5916 40.8885 78.5624 40.8958V43.2861H78.0537V40.5621C78.174 40.5183 78.3235 40.4782 78.5022 40.4417C78.6809 40.4016 78.8815 40.3816 79.1039 40.3816ZM80.0051 41.8694C80.0051 41.6178 80.0415 41.399 80.1145 41.213C80.1874 41.0234 80.284 40.8666 80.4044 40.7426C80.5247 40.6186 80.6633 40.5256 80.8201 40.4636C80.9769 40.4016 81.1374 40.3706 81.3015 40.3706C81.6843 40.3706 81.9779 40.491 82.1821 40.7317C82.3863 40.9687 82.4884 41.3315 82.4884 41.8202C82.4884 41.8421 82.4884 41.8712 82.4884 41.9077C82.4884 41.9405 82.4866 41.9715 82.483 42.0007H80.5357C80.5575 42.2961 80.6432 42.5203 80.7927 42.6735C80.9423 42.8267 81.1756 42.9032 81.4929 42.9032C81.6716 42.9032 81.8211 42.8886 81.9414 42.8595C82.0654 42.8267 82.1584 42.7957 82.2204 42.7665L82.2915 43.1931C82.2295 43.226 82.1201 43.2606 81.9633 43.2971C81.8102 43.3335 81.6351 43.3518 81.4382 43.3518C81.1902 43.3518 80.9751 43.3153 80.7927 43.2424C80.6141 43.1658 80.4664 43.0619 80.3497 42.9306C80.233 42.7993 80.1455 42.6443 80.0871 42.4656C80.0324 42.2833 80.0051 42.0846 80.0051 41.8694ZM81.9578 41.5904C81.9615 41.3607 81.9031 41.1729 81.7828 41.027C81.6661 40.8775 81.5038 40.8028 81.296 40.8028C81.1793 40.8028 81.0754 40.8265 80.9842 40.8739C80.8967 40.9176 80.8219 40.976 80.7599 41.0489C80.6979 41.1218 80.6487 41.2057 80.6122 41.3005C80.5794 41.3953 80.5575 41.492 80.5466 41.5904H81.9578ZM85.0571 41.0434C84.9951 40.9924 84.9058 40.9432 84.7891 40.8958C84.6724 40.8483 84.5448 40.8246 84.4062 40.8246C84.2603 40.8246 84.1345 40.852 84.0287 40.9067C83.9266 40.9577 83.8428 41.0307 83.7771 41.1255C83.7115 41.2167 83.6641 41.3261 83.6349 41.4537C83.6057 41.5813 83.5912 41.7181 83.5912 41.8639C83.5912 42.1958 83.6732 42.4529 83.8373 42.6352C84.0014 42.8139 84.2202 42.9032 84.4937 42.9032C84.6323 42.9032 84.7471 42.8978 84.8383 42.8868C84.9331 42.8722 85.0061 42.8577 85.0571 42.8431V41.0434ZM85.0571 39.1289L85.5658 39.0414V43.2041C85.4491 43.2369 85.2996 43.2697 85.1173 43.3025C84.9349 43.3354 84.7253 43.3518 84.4882 43.3518C84.2694 43.3518 84.0725 43.3171 83.8975 43.2478C83.7224 43.1786 83.5729 43.0801 83.4489 42.9525C83.3249 42.8248 83.2283 42.6698 83.159 42.4875C83.0934 42.3015 83.0606 42.0937 83.0606 41.8639C83.0606 41.6451 83.0879 41.4446 83.1426 41.2622C83.201 41.0799 83.2848 40.9231 83.3942 40.7918C83.5036 40.6605 83.6367 40.5584 83.7935 40.4855C83.954 40.4126 84.1363 40.3761 84.3405 40.3761C84.5046 40.3761 84.6487 40.398 84.7727 40.4417C84.9003 40.4855 84.9951 40.5274 85.0571 40.5676V39.1289ZM87.7391 43.2861V39.4954H90.0256V39.9494H88.2697V41.0927H89.8286V41.5412H88.2697V43.2861H87.7391ZM91.5396 40.3816C91.5833 40.3816 91.6326 40.3852 91.6873 40.3925C91.7456 40.3962 91.8021 40.4035 91.8568 40.4144C91.9115 40.4217 91.9608 40.4308 92.0045 40.4417C92.0519 40.449 92.0866 40.4563 92.1085 40.4636L92.0209 40.9067C91.9808 40.8921 91.9134 40.8757 91.8186 40.8575C91.7274 40.8356 91.6089 40.8246 91.463 40.8246C91.3682 40.8246 91.2734 40.8356 91.1786 40.8575C91.0874 40.8757 91.0272 40.8885 90.9981 40.8958V43.2861H90.4894V40.5621C90.6097 40.5183 90.7592 40.4782 90.9379 40.4417C91.1166 40.4016 91.3171 40.3816 91.5396 40.3816ZM95.1101 41.8639C95.1101 42.09 95.0773 42.2942 95.0116 42.4766C94.946 42.6589 94.853 42.8157 94.7326 42.947C94.616 43.0783 94.4756 43.1804 94.3115 43.2533C94.1474 43.3226 93.9687 43.3572 93.7754 43.3572C93.5821 43.3572 93.4034 43.3226 93.2393 43.2533C93.0752 43.1804 92.933 43.0783 92.8127 42.947C92.696 42.8157 92.6048 42.6589 92.5392 42.4766C92.4735 42.2942 92.4407 42.09 92.4407 41.8639C92.4407 41.6415 92.4735 41.4391 92.5392 41.2568C92.6048 41.0708 92.696 40.9122 92.8127 40.7809C92.933 40.6496 93.0752 40.5493 93.2393 40.48C93.4034 40.4071 93.5821 40.3706 93.7754 40.3706C93.9687 40.3706 94.1474 40.4071 94.3115 40.48C94.4756 40.5493 94.616 40.6496 94.7326 40.7809C94.853 40.9122 94.946 41.0708 95.0116 41.2568C95.0773 41.4391 95.1101 41.6415 95.1101 41.8639ZM94.5795 41.8639C94.5795 41.543 94.5066 41.2896 94.3607 41.1036C94.2185 40.914 94.0234 40.8192 93.7754 40.8192C93.5274 40.8192 93.3305 40.914 93.1846 41.1036C93.0424 41.2896 92.9713 41.543 92.9713 41.8639C92.9713 42.1848 93.0424 42.4401 93.1846 42.6297C93.3305 42.8157 93.5274 42.9087 93.7754 42.9087C94.0234 42.9087 94.2185 42.8157 94.3607 42.6297C94.5066 42.4401 94.5795 42.1848 94.5795 41.8639ZM95.8258 40.5238C95.9425 40.4946 96.0975 40.4636 96.2907 40.4308C96.484 40.398 96.7065 40.3816 96.9581 40.3816C97.1842 40.3816 97.372 40.4144 97.5215 40.48C97.671 40.542 97.7895 40.6314 97.877 40.7481C97.9682 40.8611 98.032 40.9979 98.0685 41.1583C98.1049 41.3188 98.1232 41.4956 98.1232 41.6889V43.2861H97.6145V41.7983C97.6145 41.6233 97.6017 41.4737 97.5762 41.3498C97.5543 41.2258 97.516 41.1255 97.4613 41.0489C97.4066 40.9723 97.3337 40.9176 97.2425 40.8848C97.1513 40.8483 97.0383 40.8301 96.9034 40.8301C96.8487 40.8301 96.7922 40.8319 96.7338 40.8356C96.6755 40.8392 96.6189 40.8447 96.5642 40.852C96.5132 40.8556 96.4658 40.8611 96.422 40.8684C96.3819 40.8757 96.3527 40.8812 96.3345 40.8848V43.2861H95.8258V40.5238ZM99.4426 40.4417H100.52V40.8684H99.4426V42.1812C99.4426 42.3234 99.4536 42.4419 99.4755 42.5367C99.4973 42.6279 99.5302 42.7008 99.5739 42.7555C99.6177 42.8066 99.6724 42.8431 99.738 42.8649C99.8037 42.8868 99.8802 42.8978 99.9678 42.8978C100.121 42.8978 100.243 42.8814 100.334 42.8485C100.429 42.8121 100.495 42.7865 100.531 42.772L100.63 43.1931C100.579 43.2187 100.489 43.2497 100.362 43.2861C100.234 43.3262 100.088 43.3463 99.924 43.3463C99.7307 43.3463 99.5703 43.3226 99.4426 43.2752C99.3187 43.2241 99.2184 43.1494 99.1418 43.0509C99.0652 42.9525 99.0105 42.8321 98.9777 42.6899C98.9485 42.544 98.9339 42.3763 98.9339 42.1867V39.6486L99.4426 39.5611V40.4417ZM100.956 41.8694C100.956 41.6178 100.992 41.399 101.065 41.213C101.138 41.0234 101.234 40.8666 101.355 40.7426C101.475 40.6186 101.614 40.5256 101.771 40.4636C101.927 40.4016 102.088 40.3706 102.252 40.3706C102.635 40.3706 102.928 40.491 103.133 40.7317C103.337 40.9687 103.439 41.3315 103.439 41.8202C103.439 41.8421 103.439 41.8712 103.439 41.9077C103.439 41.9405 103.437 41.9715 103.433 42.0007H101.486C101.508 42.2961 101.594 42.5203 101.743 42.6735C101.893 42.8267 102.126 42.9032 102.443 42.9032C102.622 42.9032 102.772 42.8886 102.892 42.8595C103.016 42.8267 103.109 42.7957 103.171 42.7665L103.242 43.1931C103.18 43.226 103.071 43.2606 102.914 43.2971C102.761 43.3335 102.586 43.3518 102.389 43.3518C102.141 43.3518 101.926 43.3153 101.743 43.2424C101.565 43.1658 101.417 43.0619 101.3 42.9306C101.183 42.7993 101.096 42.6443 101.038 42.4656C100.983 42.2833 100.956 42.0846 100.956 41.8694ZM102.908 41.5904C102.912 41.3607 102.854 41.1729 102.733 41.027C102.617 40.8775 102.454 40.8028 102.246 40.8028C102.13 40.8028 102.026 40.8265 101.935 40.8739C101.847 40.9176 101.772 40.976 101.71 41.0489C101.648 41.1218 101.599 41.2057 101.563 41.3005C101.53 41.3953 101.508 41.492 101.497 41.5904H102.908ZM104.17 40.5238C104.286 40.4946 104.441 40.4636 104.635 40.4308C104.828 40.398 105.05 40.3816 105.302 40.3816C105.528 40.3816 105.716 40.4144 105.865 40.48C106.015 40.542 106.133 40.6314 106.221 40.7481C106.312 40.8611 106.376 40.9979 106.412 41.1583C106.449 41.3188 106.467 41.4956 106.467 41.6889V43.2861H105.958V41.7983C105.958 41.6233 105.946 41.4737 105.92 41.3498C105.898 41.2258 105.86 41.1255 105.805 41.0489C105.75 40.9723 105.678 40.9176 105.586 40.8848C105.495 40.8483 105.382 40.8301 105.247 40.8301C105.193 40.8301 105.136 40.8319 105.078 40.8356C105.019 40.8392 104.963 40.8447 104.908 40.852C104.857 40.8556 104.81 40.8611 104.766 40.8684C104.726 40.8757 104.697 40.8812 104.678 40.8848V43.2861H104.17V40.5238ZM109.149 41.0434C109.087 40.9924 108.997 40.9432 108.88 40.8958C108.764 40.8483 108.636 40.8246 108.498 40.8246C108.352 40.8246 108.226 40.852 108.12 40.9067C108.018 40.9577 107.934 41.0307 107.869 41.1255C107.803 41.2167 107.756 41.3261 107.726 41.4537C107.697 41.5813 107.683 41.7181 107.683 41.8639C107.683 42.1958 107.765 42.4529 107.929 42.6352C108.093 42.8139 108.312 42.9032 108.585 42.9032C108.724 42.9032 108.839 42.8978 108.93 42.8868C109.025 42.8722 109.097 42.8577 109.149 42.8431V41.0434ZM109.149 39.1289L109.657 39.0414V43.2041C109.541 43.2369 109.391 43.2697 109.209 43.3025C109.026 43.3354 108.817 43.3518 108.58 43.3518C108.361 43.3518 108.164 43.3171 107.989 43.2478C107.814 43.1786 107.664 43.0801 107.54 42.9525C107.416 42.8248 107.32 42.6698 107.25 42.4875C107.185 42.3015 107.152 42.0937 107.152 41.8639C107.152 41.6451 107.179 41.4446 107.234 41.2622C107.292 41.0799 107.376 40.9231 107.486 40.7918C107.595 40.6605 107.728 40.5584 107.885 40.4855C108.045 40.4126 108.228 40.3761 108.432 40.3761C108.596 40.3761 108.74 40.398 108.864 40.4417C108.992 40.4855 109.087 40.5274 109.149 40.5676V39.1289ZM112.711 42.9087C113.265 42.9087 113.543 42.7191 113.543 42.3398C113.543 42.2231 113.517 42.1247 113.466 42.0444C113.419 41.9606 113.353 41.8895 113.269 41.8311C113.185 41.7691 113.089 41.7162 112.979 41.6725C112.873 41.6287 112.76 41.585 112.64 41.5412C112.502 41.4938 112.37 41.4409 112.246 41.3826C112.122 41.3206 112.015 41.2495 111.924 41.1692C111.832 41.0854 111.759 40.9869 111.705 40.8739C111.654 40.7608 111.628 40.6241 111.628 40.4636C111.628 40.1318 111.741 39.8729 111.967 39.6869C112.193 39.5009 112.505 39.4079 112.903 39.4079C113.132 39.4079 113.34 39.4334 113.526 39.4845C113.716 39.5319 113.854 39.5848 113.942 39.6431L113.772 40.0753C113.696 40.0278 113.581 39.9823 113.428 39.9385C113.278 39.8911 113.103 39.8674 112.903 39.8674C112.801 39.8674 112.706 39.8783 112.618 39.9002C112.531 39.9221 112.454 39.9549 112.388 39.9987C112.323 40.0424 112.27 40.099 112.23 40.1682C112.193 40.2339 112.175 40.3123 112.175 40.4035C112.175 40.5056 112.195 40.5913 112.235 40.6605C112.275 40.7298 112.332 40.7918 112.405 40.8465C112.478 40.8976 112.562 40.945 112.656 40.9887C112.755 41.0325 112.863 41.0763 112.979 41.12C113.143 41.1857 113.293 41.2513 113.428 41.3169C113.566 41.3826 113.685 41.461 113.783 41.5521C113.885 41.6433 113.964 41.7527 114.019 41.8803C114.073 42.0043 114.101 42.1557 114.101 42.3344C114.101 42.6662 113.978 42.9215 113.734 43.1002C113.493 43.2788 113.152 43.3682 112.711 43.3682C112.562 43.3682 112.423 43.3572 112.295 43.3354C112.171 43.3171 112.06 43.2952 111.962 43.2697C111.863 43.2405 111.778 43.2114 111.705 43.1822C111.635 43.1494 111.581 43.122 111.541 43.1002L111.699 42.6626C111.783 42.71 111.911 42.7628 112.082 42.8212C112.254 42.8795 112.463 42.9087 112.711 42.9087ZM117.22 41.8639C117.22 42.09 117.187 42.2942 117.121 42.4766C117.056 42.6589 116.963 42.8157 116.842 42.947C116.726 43.0783 116.585 43.1804 116.421 43.2533C116.257 43.3226 116.078 43.3572 115.885 43.3572C115.692 43.3572 115.513 43.3226 115.349 43.2533C115.185 43.1804 115.043 43.0783 114.922 42.947C114.806 42.8157 114.714 42.6589 114.649 42.4766C114.583 42.2942 114.55 42.09 114.55 41.8639C114.55 41.6415 114.583 41.4391 114.649 41.2568C114.714 41.0708 114.806 40.9122 114.922 40.7809C115.043 40.6496 115.185 40.5493 115.349 40.48C115.513 40.4071 115.692 40.3706 115.885 40.3706C116.078 40.3706 116.257 40.4071 116.421 40.48C116.585 40.5493 116.726 40.6496 116.842 40.7809C116.963 40.9122 117.056 41.0708 117.121 41.2568C117.187 41.4391 117.22 41.6415 117.22 41.8639ZM116.689 41.8639C116.689 41.543 116.616 41.2896 116.47 41.1036C116.328 40.914 116.133 40.8192 115.885 40.8192C115.637 40.8192 115.44 40.914 115.294 41.1036C115.152 41.2896 115.081 41.543 115.081 41.8639C115.081 42.1848 115.152 42.4401 115.294 42.6297C115.44 42.8157 115.637 42.9087 115.885 42.9087C116.133 42.9087 116.328 42.8157 116.47 42.6297C116.616 42.4401 116.689 42.1848 116.689 41.8639ZM118.789 43.3408C118.475 43.3335 118.253 43.2661 118.121 43.1384C117.99 43.0108 117.924 42.8121 117.924 42.5422V39.1289L118.433 39.0414V42.4602C118.433 42.544 118.44 42.6133 118.455 42.668C118.47 42.7227 118.493 42.7665 118.526 42.7993C118.559 42.8321 118.603 42.8577 118.657 42.8759C118.712 42.8905 118.78 42.9032 118.86 42.9142L118.789 43.3408ZM121.696 43.2041C121.579 43.2333 121.424 43.2643 121.231 43.2971C121.041 43.3299 120.82 43.3463 120.569 43.3463C120.35 43.3463 120.166 43.3153 120.016 43.2533C119.867 43.1877 119.747 43.0965 119.655 42.9798C119.564 42.8631 119.499 42.7264 119.458 42.5696C119.418 42.4091 119.398 42.2322 119.398 42.039V40.4417H119.907V41.9296C119.907 42.276 119.962 42.524 120.071 42.6735C120.18 42.823 120.365 42.8978 120.624 42.8978C120.678 42.8978 120.735 42.8959 120.793 42.8923C120.851 42.8886 120.906 42.885 120.957 42.8814C121.008 42.8741 121.054 42.8686 121.094 42.8649C121.138 42.8577 121.169 42.8504 121.187 42.8431V40.4417H121.696V43.2041ZM123.048 40.4417H124.126V40.8684H123.048V42.1812C123.048 42.3234 123.059 42.4419 123.081 42.5367C123.103 42.6279 123.135 42.7008 123.179 42.7555C123.223 42.8066 123.278 42.8431 123.343 42.8649C123.409 42.8868 123.486 42.8978 123.573 42.8978C123.726 42.8978 123.848 42.8814 123.94 42.8485C124.034 42.8121 124.1 42.7865 124.136 42.772L124.235 43.1931C124.184 43.2187 124.095 43.2497 123.967 43.2861C123.839 43.3262 123.693 43.3463 123.529 43.3463C123.336 43.3463 123.176 43.3226 123.048 43.2752C122.924 43.2241 122.824 43.1494 122.747 43.0509C122.671 42.9525 122.616 42.8321 122.583 42.6899C122.554 42.544 122.539 42.3763 122.539 42.1867V39.6486L123.048 39.5611V40.4417ZM125.282 43.2861H124.773V40.4417H125.282V43.2861ZM125.025 39.9276C124.933 39.9276 124.855 39.8984 124.789 39.84C124.727 39.7781 124.696 39.696 124.696 39.5939C124.696 39.4918 124.727 39.4116 124.789 39.3532C124.855 39.2912 124.933 39.2602 125.025 39.2602C125.116 39.2602 125.192 39.2912 125.254 39.3532C125.32 39.4116 125.353 39.4918 125.353 39.5939C125.353 39.696 125.32 39.7781 125.254 39.84C125.192 39.8984 125.116 39.9276 125.025 39.9276ZM128.667 41.8639C128.667 42.09 128.634 42.2942 128.569 42.4766C128.503 42.6589 128.41 42.8157 128.29 42.947C128.173 43.0783 128.033 43.1804 127.869 43.2533C127.704 43.3226 127.526 43.3572 127.332 43.3572C127.139 43.3572 126.96 43.3226 126.796 43.2533C126.632 43.1804 126.49 43.0783 126.37 42.947C126.253 42.8157 126.162 42.6589 126.096 42.4766C126.031 42.2942 125.998 42.09 125.998 41.8639C125.998 41.6415 126.031 41.4391 126.096 41.2568C126.162 41.0708 126.253 40.9122 126.37 40.7809C126.49 40.6496 126.632 40.5493 126.796 40.48C126.96 40.4071 127.139 40.3706 127.332 40.3706C127.526 40.3706 127.704 40.4071 127.869 40.48C128.033 40.5493 128.173 40.6496 128.29 40.7809C128.41 40.9122 128.503 41.0708 128.569 41.2568C128.634 41.4391 128.667 41.6415 128.667 41.8639ZM128.137 41.8639C128.137 41.543 128.064 41.2896 127.918 41.1036C127.776 40.914 127.58 40.8192 127.332 40.8192C127.084 40.8192 126.888 40.914 126.742 41.1036C126.599 41.2896 126.528 41.543 126.528 41.8639C126.528 42.1848 126.599 42.4401 126.742 42.6297C126.888 42.8157 127.084 42.9087 127.332 42.9087C127.58 42.9087 127.776 42.8157 127.918 42.6297C128.064 42.4401 128.137 42.1848 128.137 41.8639ZM129.383 40.5238C129.5 40.4946 129.655 40.4636 129.848 40.4308C130.041 40.398 130.264 40.3816 130.515 40.3816C130.741 40.3816 130.929 40.4144 131.079 40.48C131.228 40.542 131.347 40.6314 131.434 40.7481C131.525 40.8611 131.589 40.9979 131.626 41.1583C131.662 41.3188 131.68 41.4956 131.68 41.6889V43.2861H131.172V41.7983C131.172 41.6233 131.159 41.4737 131.133 41.3498C131.111 41.2258 131.073 41.1255 131.018 41.0489C130.964 40.9723 130.891 40.9176 130.8 40.8848C130.708 40.8483 130.595 40.8301 130.46 40.8301C130.406 40.8301 130.349 40.8319 130.291 40.8356C130.233 40.8392 130.176 40.8447 130.121 40.852C130.07 40.8556 130.023 40.8611 129.979 40.8684C129.939 40.8757 129.91 40.8812 129.892 40.8848V43.2861H129.383V40.5238ZM133.186 42.9196C133.394 42.9196 133.547 42.8923 133.645 42.8376C133.747 42.7829 133.798 42.6954 133.798 42.575C133.798 42.451 133.749 42.3526 133.651 42.2797C133.552 42.2067 133.39 42.1247 133.164 42.0335C133.054 41.9897 132.949 41.946 132.847 41.9022C132.748 41.8548 132.662 41.8001 132.589 41.7381C132.517 41.6761 132.458 41.6014 132.414 41.5139C132.371 41.4263 132.349 41.3188 132.349 41.1911C132.349 40.9395 132.442 40.7408 132.628 40.5949C132.814 40.4454 133.067 40.3706 133.388 40.3706C133.468 40.3706 133.549 40.3761 133.629 40.387C133.709 40.3943 133.784 40.4053 133.853 40.4199C133.922 40.4308 133.982 40.4436 134.034 40.4582C134.088 40.4727 134.13 40.4855 134.159 40.4964L134.066 40.934C134.012 40.9049 133.926 40.8757 133.809 40.8465C133.693 40.8137 133.552 40.7973 133.388 40.7973C133.246 40.7973 133.122 40.8265 133.016 40.8848C132.91 40.9395 132.857 41.027 132.857 41.1474C132.857 41.2094 132.868 41.2641 132.89 41.3115C132.916 41.3589 132.952 41.4026 133 41.4427C133.051 41.4792 133.113 41.5139 133.186 41.5467C133.259 41.5795 133.346 41.6141 133.448 41.6506C133.583 41.7017 133.704 41.7527 133.809 41.8038C133.915 41.8512 134.004 41.9077 134.077 41.9733C134.154 42.039 134.212 42.1192 134.252 42.214C134.292 42.3052 134.312 42.4182 134.312 42.5532C134.312 42.8157 134.214 43.0145 134.017 43.1494C133.824 43.2843 133.547 43.3518 133.186 43.3518C132.934 43.3518 132.737 43.3299 132.595 43.2861C132.453 43.246 132.356 43.215 132.305 43.1931L132.398 42.7555C132.456 42.7774 132.549 42.8102 132.677 42.854C132.805 42.8978 132.974 42.9196 133.186 42.9196Z" fill="#E3E8F2"/>
<path d="M65.8054 33.0637V18.5703H75.5532V21.3086H69.0417V24.1525H74.8163V26.8282H69.0417V30.3215H76.0601V33.0598L65.8054 33.0637Z" fill="url(#paint0_linear_5330_258)"/>
<path d="M78.2283 22.4397C78.9005 22.2578 79.5827 22.1155 80.2714 22.0133C81.1408 21.8777 82.0196 21.811 82.8994 21.8138C83.695 21.7885 84.4883 21.9118 85.2389 22.1776C85.8102 22.3893 86.3168 22.7466 86.7089 23.2142C87.0832 23.6789 87.3496 24.2215 87.4887 24.8024C87.6479 25.4738 87.7252 26.1621 87.7187 26.8522V33.0643H84.5994V27.2473C84.5994 26.2407 84.4695 25.5287 84.2095 25.1115C83.9444 24.6929 83.4297 24.4856 82.7279 24.4856C82.5056 24.4856 82.2678 24.4856 82.0182 24.5169C81.7687 24.5482 81.5464 24.5599 81.3515 24.5912V33.0799H78.2322L78.2283 22.4397Z" fill="url(#paint1_linear_5330_258)"/>
<path d="M100.703 27.5635C100.712 28.3481 100.606 29.1298 100.387 29.8832C100.204 30.5382 99.8923 31.1499 99.4707 31.6827C99.0678 32.1854 98.5538 32.5871 97.9695 32.8562C97.3208 33.1456 96.6167 33.2885 95.9069 33.2748C95.5004 33.2774 95.0949 33.234 94.6981 33.1457C94.3261 33.0645 93.963 32.9466 93.6142 32.7936V36.9324H90.4949V22.4585C90.7756 22.3764 91.0953 22.2942 91.4541 22.2199C91.8128 22.1456 92.1949 22.0752 92.5926 22.0204C92.9903 21.9656 93.3919 21.9187 93.8013 21.8835C94.2107 21.8483 94.6046 21.8326 94.9711 21.8326C95.7939 21.8149 96.613 21.9475 97.3885 22.2238C98.0614 22.4743 98.673 22.8664 99.1821 23.3739C99.6793 23.8901 100.06 24.5079 100.297 25.1851C100.57 25.948 100.707 26.753 100.703 27.5635ZM97.5328 27.6456C97.5742 26.826 97.3469 26.0153 96.8855 25.3376C96.6613 25.0462 96.369 24.8145 96.0344 24.6631C95.6999 24.5116 95.3334 24.4451 94.9672 24.4692C94.6903 24.4692 94.433 24.4692 94.1873 24.5005C93.9911 24.514 93.7958 24.5388 93.6025 24.5748V30.2001C93.8452 30.3432 94.1081 30.4487 94.3823 30.513C94.6914 30.5954 95.0099 30.6375 95.3298 30.6382C96.7985 30.6382 97.5328 29.6381 97.5328 27.6378V27.6456Z" fill="url(#paint2_linear_5330_258)"/>
<path d="M106.497 18.8831C106.51 19.1351 106.467 19.387 106.372 19.6204C106.276 19.8539 106.13 20.063 105.943 20.2327C105.583 20.5501 105.12 20.7251 104.641 20.7251C104.162 20.7251 103.699 20.5501 103.339 20.2327C102.984 19.8743 102.785 19.3899 102.785 18.885C102.785 18.3801 102.984 17.8957 103.339 17.5374C103.699 17.22 104.162 17.0449 104.641 17.0449C105.12 17.0449 105.583 17.22 105.943 17.5374C106.129 17.7063 106.276 17.9147 106.372 18.1475C106.467 18.3803 106.51 18.6316 106.497 18.8831Z" fill="url(#paint3_linear_5330_258)"/>
<path d="M109.02 19.3249L112.139 18.8203V22.0632H115.87V24.6568H112.139V28.5256C112.116 29.0682 112.234 29.6075 112.482 30.0903C112.712 30.4815 113.176 30.6771 113.87 30.6771C114.217 30.6761 114.562 30.6446 114.903 30.5832C115.233 30.5258 115.557 30.4381 115.87 30.3211L116.311 32.7465C115.904 32.9075 115.485 33.0382 115.059 33.1377C114.505 33.2604 113.938 33.3169 113.371 33.3059C112.653 33.3294 111.938 33.2124 111.265 32.9616C110.747 32.7593 110.288 32.4282 109.932 31.9993C109.584 31.5634 109.344 31.0515 109.23 30.505C109.095 29.862 109.029 29.2062 109.035 28.5491L109.02 19.3249Z" fill="#E3E8F2"/>
<path d="M117.438 27.6383C117.421 26.7644 117.573 25.8956 117.886 25.0799C118.152 24.3981 118.55 23.7759 119.056 23.2492C119.539 22.7753 120.114 22.4052 120.744 22.1617C121.364 21.9083 122.025 21.7756 122.694 21.7705C124.254 21.7705 125.483 22.2478 126.383 23.2022C127.282 24.1567 127.734 25.5624 127.74 27.4192C127.74 27.5992 127.74 27.8104 127.716 28.0138C127.693 28.2172 127.689 28.405 127.673 28.5889H120.627C120.655 28.8938 120.75 29.1888 120.905 29.4526C121.06 29.7164 121.272 29.9424 121.524 30.1145C122.157 30.5224 122.902 30.7208 123.653 30.6817C124.216 30.681 124.777 30.6286 125.33 30.5252C125.791 30.4444 126.242 30.3132 126.675 30.134L127.092 32.665C126.876 32.7648 126.654 32.8485 126.426 32.9154C126.12 33.0042 125.81 33.0773 125.498 33.1344C125.154 33.197 124.792 33.2479 124.402 33.2909C124.013 33.3332 123.623 33.3541 123.232 33.3535C122.353 33.3728 121.478 33.2241 120.655 32.9154C119.97 32.6511 119.351 32.2399 118.842 31.7105C118.359 31.1956 117.997 30.5796 117.781 29.9072C117.546 29.1743 117.43 28.4082 117.438 27.6383ZM124.737 26.4647C124.722 26.1995 124.676 25.9369 124.601 25.6824C124.527 25.4383 124.406 25.2111 124.246 25.0134C124.079 24.8132 123.874 24.6494 123.642 24.5323C123.358 24.3981 123.046 24.3338 122.733 24.3445C122.426 24.3365 122.121 24.3967 121.84 24.5205C121.6 24.6321 121.386 24.7934 121.212 24.9939C121.04 25.1919 120.907 25.4218 120.822 25.6706C120.734 25.9251 120.667 26.1869 120.624 26.453L124.737 26.4647Z" fill="#E3E8F2"/>
<path d="M129.615 27.564C129.611 26.797 129.743 26.0354 130.005 25.3147C130.247 24.6287 130.629 24.0006 131.125 23.47C131.622 22.9395 132.223 22.518 132.89 22.2321C133.64 21.9125 134.45 21.7552 135.265 21.7706C136.304 21.7574 137.335 21.964 138.29 22.3769L137.643 24.8648C137.33 24.7483 137.009 24.6516 136.684 24.5753C136.301 24.4851 135.908 24.4417 135.514 24.4463C135.128 24.4178 134.741 24.4809 134.384 24.6304C134.027 24.7799 133.711 25.0117 133.459 25.3069C132.981 25.9587 132.742 26.7558 132.781 27.564C132.732 28.3803 132.955 29.1898 133.416 29.8642C133.84 30.4092 134.581 30.6817 135.639 30.6817C136.044 30.679 136.448 30.6437 136.848 30.5761C137.25 30.5123 137.643 30.3993 138.017 30.2397L138.458 32.7941C138.019 32.9684 137.565 33.0995 137.101 33.1853C136.511 33.3029 135.91 33.3592 135.308 33.3535C134.426 33.3753 133.549 33.2224 132.726 32.9037C132.047 32.6343 131.437 32.2159 130.941 31.6793C130.47 31.1521 130.123 30.5268 129.923 29.8485C129.706 29.107 129.602 28.3367 129.615 27.564Z" fill="#E3E8F2"/>
<path d="M140.556 33.0633V17.3376L143.675 16.833V22.1062C143.938 22.0217 144.206 21.9551 144.478 21.9067C144.79 21.8456 145.108 21.8142 145.426 21.8128C146.182 21.7898 146.935 21.9133 147.644 22.1766C148.198 22.3944 148.687 22.7514 149.064 23.2132C149.428 23.6802 149.683 24.2228 149.812 24.8014C149.967 25.4735 150.041 26.1616 150.034 26.8513V33.0633H146.915V27.2463C146.915 26.2397 146.785 25.5277 146.525 25.1105C146.268 24.6919 145.792 24.4846 145.098 24.4846C144.837 24.4835 144.575 24.5071 144.318 24.555C144.077 24.6058 143.858 24.6567 143.663 24.7154V33.0789L140.556 33.0633Z" fill="#E3E8F2"/>
<path d="M106.204 22.0645H103.097V33.0646H106.204V22.0645Z" fill="url(#paint4_linear_5330_258)"/>
<path d="M40.0401 46.9703C40.3248 46.9703 41.4828 30.607 41.4828 30.607C40.2309 29.2775 39.1799 27.7711 38.3635 26.1357C38.3635 26.1357 39.7516 46.9703 40.0401 46.9703Z" fill="white"/>
<path d="M42.3174 16.0512C42.3174 14.3105 41.3426 13 40.052 13C38.7614 13 37.7866 14.3105 37.7866 16.0512C37.7878 16.2016 37.7969 16.3517 37.8139 16.5011L38.3559 26.136C39.1723 27.7713 40.2232 29.2777 41.4752 30.6072L42.2823 16.5246C42.3026 16.3676 42.3143 16.2095 42.3174 16.0512ZM40.052 19.525C38.855 19.525 38.6756 17.1974 38.6756 16.0512C38.6756 15.2219 39.1279 13.8567 40.052 13.8567C41.249 13.8567 41.4284 15.2219 41.4284 16.0512C41.4284 17.1974 41.249 19.525 40.052 19.525Z" fill="url(#paint5_linear_5330_258)"/>
<path d="M47.4266 45.0648L46.8559 44.4922C46.5561 44.1914 46.3877 43.7835 46.3877 43.3581C46.3877 42.9327 46.5561 42.5248 46.8559 42.224L57.6444 31.4003L59.0423 32.8027C59.4177 33.1823 59.6291 33.6949 59.6307 34.2297C59.6322 34.7644 59.4238 35.2783 59.0505 35.6601L49.6764 45.0648C49.3771 45.3622 48.9728 45.529 48.5515 45.529C48.1302 45.529 47.726 45.3622 47.4266 45.0648Z" fill="url(#paint6_linear_5330_258)"/>
<path d="M21.0572 32.8048L22.4551 31.4024L33.2436 42.2261C33.5434 42.5269 33.7118 42.9348 33.7118 43.3602C33.7118 43.7856 33.5434 44.1935 33.2436 44.4943L32.6729 45.0669C32.3731 45.3677 31.9664 45.5366 31.5425 45.5366C31.1185 45.5366 30.7118 45.3677 30.412 45.0669L21.0572 35.6815C20.677 35.3001 20.4634 34.7827 20.4634 34.2432C20.4634 33.7037 20.677 33.1863 21.0572 32.8048Z" fill="url(#paint7_linear_5330_258)"/>
<path d="M52.6652 21.0307C50.9184 21.1441 50.3764 23.5069 50.8404 24.5161L50.6611 24.3362C49.62 22.5289 47.9317 18.2885 52.8953 15.2842C46.8321 15.4407 45.6078 18.6718 45.7599 21.6057C45.9107 24.034 46.9492 26.3211 48.6764 28.029L57.6717 37.0536L59.7343 35.0429C59.8391 34.9379 59.9223 34.8132 59.979 34.676C60.0357 34.5387 60.0649 34.3916 60.0649 34.243C60.0649 34.0944 60.0357 33.9472 59.979 33.8099C59.9223 33.6727 59.8391 33.548 59.7343 33.443L56.0614 29.758C54.451 28.1385 50.5207 23.6399 52.6652 21.0307Z" fill="url(#paint8_linear_5330_258)"/>
<path d="M27.4422 21.0307C29.1851 21.148 29.731 23.5069 29.2631 24.5161L29.4463 24.3362C30.4874 22.5289 32.1757 18.2924 27.2082 15.2842C33.2714 15.4407 34.4957 18.6758 34.3436 21.6057C34.1943 24.0344 33.1555 26.322 31.4271 28.029L22.4318 37.0575L20.3653 35.0429C20.2605 34.9379 20.1773 34.8132 20.1206 34.676C20.0639 34.5387 20.0347 34.3916 20.0347 34.243C20.0347 34.0944 20.0639 33.9472 20.1206 33.8099C20.1773 33.6727 20.2605 33.548 20.3653 33.443L24.0422 29.758C25.6525 28.1424 29.5828 23.6438 27.4422 21.0307Z" fill="url(#paint9_linear_5330_258)"/>
<defs>
<linearGradient id="paint0_linear_5330_258" x1="61.4501" y1="23.4992" x2="112.47" y2="36.2166" gradientUnits="userSpaceOnUse">
<stop stop-color="#8D2DE1"/>
<stop offset="1" stop-color="#FF921E"/>
</linearGradient>
<linearGradient id="paint1_linear_5330_258" x1="61.6804" y1="22.5766" x2="112.7" y2="35.2901" gradientUnits="userSpaceOnUse">
<stop stop-color="#8D2DE1"/>
<stop offset="1" stop-color="#FF921E"/>
</linearGradient>
<linearGradient id="paint2_linear_5330_258" x1="61.9416" y1="21.5275" x2="112.962" y2="34.241" gradientUnits="userSpaceOnUse">
<stop stop-color="#8D2DE1"/>
<stop offset="1" stop-color="#FF921E"/>
</linearGradient>
<linearGradient id="paint3_linear_5330_258" x1="65.0727" y1="8.95872" x2="116.093" y2="21.6722" gradientUnits="userSpaceOnUse">
<stop stop-color="#8D2DE1"/>
<stop offset="1" stop-color="#FF921E"/>
</linearGradient>
<linearGradient id="paint4_linear_5330_258" x1="63.0371" y1="17.1277" x2="114.057" y2="29.8412" gradientUnits="userSpaceOnUse">
<stop stop-color="#8D2DE1"/>
<stop offset="1" stop-color="#FF921E"/>
</linearGradient>
<linearGradient id="paint5_linear_5330_258" x1="37.3655" y1="30.2513" x2="40.5622" y2="20.102" gradientUnits="userSpaceOnUse">
<stop stop-color="#4B6CB7"/>
<stop offset="1" stop-color="#182848"/>
</linearGradient>
<linearGradient id="paint6_linear_5330_258" x1="46.0505" y1="45.4688" x2="36.9193" y2="42.2351" gradientUnits="userSpaceOnUse">
<stop stop-color="#8E2DE2"/>
<stop offset="1" stop-color="#FF931E"/>
</linearGradient>
<linearGradient id="paint7_linear_5330_258" x1="26.2091" y1="46.818" x2="35.3465" y2="43.5853" gradientUnits="userSpaceOnUse">
<stop stop-color="#8E2DE2"/>
<stop offset="1" stop-color="#FF931E"/>
</linearGradient>
<linearGradient id="paint8_linear_5330_258" x1="45.7443" y1="26.1709" x2="60.0657" y2="26.1709" gradientUnits="userSpaceOnUse">
<stop stop-color="#8E2DE2"/>
<stop offset="1" stop-color="#FF931E"/>
</linearGradient>
<linearGradient id="paint9_linear_5330_258" x1="34.3592" y1="26.1709" x2="20.0378" y2="26.1709" gradientUnits="userSpaceOnUse">
<stop stop-color="#8E2DE2"/>
<stop offset="1" stop-color="#FF931E"/>
</linearGradient>
</defs>
</svg>
