<svg width="1200" height="433" viewBox="0 0 1200 433" fill="none" xmlns="http://www.w3.org/2000/svg">
<path d="M18.8008 313.085L44.9153 305.257L48.1234 214.611C48.1234 209.157 47.6903 205.617 46.8241 203.991C45.9579 202.387 43.7764 200.575 40.2955 198.57L23.8857 189.619L26.9656 168.974C44.7709 165.558 89.0757 148.699 100.898 144.143C101.27 143.996 101.67 143.93 102.07 143.948C102.469 143.966 102.861 144.069 103.219 144.249C103.576 144.429 103.891 144.683 104.144 144.994C104.396 145.304 104.58 145.665 104.683 146.052C106.528 152.95 108.02 169.616 108.004 178.839L107.619 292.986C107.619 298.215 107.993 301.696 108.742 303.429C109.49 305.161 111.602 307.027 115.078 309.027L133.284 319.502L131.793 347.477H19.9236L18.8008 313.085Z" fill="#FF5470"/>
<path d="M118.752 312.01L141.883 305.305V214.659C141.883 209.205 141.498 205.66 140.76 204.039C140.022 202.419 138.017 200.623 134.793 198.618L118.383 189.667L119.506 161.708L129.563 159.831C160.148 153.618 182.776 150.265 197.448 149.773C199.422 155.002 201.03 160.362 202.26 165.814C213.379 160.476 224.913 156.051 236.748 152.58C245.305 150.116 254.152 148.799 263.055 148.666C272.419 148.589 281.699 150.428 290.325 154.072C298.784 157.687 305.125 162.472 309.349 168.429C321.596 162.22 334.392 157.161 347.574 153.318C358.072 150.336 368.921 148.771 379.833 148.666C400.226 148.666 415.272 154.511 424.972 166.199C434.671 177.887 439.521 195.666 439.521 219.535V293.002C439.521 298.231 439.889 301.712 440.627 303.445C441.381 305.193 443.483 307.054 447.044 309.043L464.881 319.501L463.389 347.477H361.931L360.07 312.042L377.972 306.829V236.298C378.115 228.64 377.804 220.98 377.041 213.359C376.817 211.229 376.153 209.169 375.093 207.309C374.033 205.448 372.599 203.827 370.882 202.548C367.406 199.938 361.562 198.628 353.349 198.618C346.933 198.618 336.116 199.74 320.898 201.986C321.486 207.811 321.738 213.665 321.652 219.519V292.986C321.652 298.215 322.027 301.696 322.775 303.429C323.513 305.177 325.759 307.038 329.48 309.027L347.767 319.469L346.275 347.445H244.079L242.202 312.01L260.12 306.797V236.298C260.264 228.517 259.948 220.734 259.173 212.99C258.965 210.883 258.309 208.844 257.249 207.01C256.19 205.176 254.751 203.589 253.03 202.355C249.533 199.863 243.812 198.618 235.866 198.618C225.223 198.816 214.617 199.943 204.169 201.986V292.986C204.169 298.215 204.544 301.696 205.292 303.429C206.041 305.161 208.024 307.027 211.243 309.027L229.53 319.501L228.038 347.477H120.564L118.752 312.01Z" fill="#FF5470"/>
<path d="M461.511 338.301C451.331 328.976 446.235 316.983 446.225 302.322C446.225 282.677 456.111 267.257 475.884 256.06C495.657 244.864 524.434 238.522 562.216 237.036C562.216 225.358 561.286 216.717 559.425 211.114C558.691 208.57 557.409 206.217 555.669 204.222C553.928 202.227 551.772 200.637 549.351 199.564C544.539 197.447 537.096 196.356 527.167 196.356C519.936 196.176 512.701 196.552 505.528 197.479L490.241 227.684L462.634 225.823C458.322 205.398 455.333 184.716 453.684 163.905C468.583 158.934 483.861 155.179 499.368 152.677C514.71 150.053 530.241 148.685 545.806 148.586C572.167 148.586 591.063 153.746 602.494 164.066C613.926 174.385 619.648 191.496 619.658 215.397V293.355C619.658 297.836 620.091 300.948 620.958 302.691C622.37 304.93 624.374 306.734 626.748 307.904L641.666 316.486L640.174 339.617C611.301 346.322 588.55 350.065 571.921 350.845C571.423 349.354 570.669 346.691 569.675 342.825C568.68 338.959 567.814 335.318 567.076 331.821C557.137 338.153 546.418 343.168 535.187 346.739C524.556 350.299 513.434 352.172 502.223 352.289C485.284 352.289 471.713 347.627 461.511 338.301ZM563.339 300.076L561.847 271.732C555.88 271.229 551.902 270.978 549.913 270.978C542.04 271.062 534.185 271.733 526.413 272.983C519.215 273.968 512.107 275.529 505.159 277.651C504.445 280.582 504.069 283.585 504.036 286.602C504.036 294.088 506.089 299.868 510.195 303.942C514.302 308.016 519.959 310.07 527.167 310.102C537.101 310.134 549.159 306.792 563.339 300.076V300.076Z" fill="#FF5470"/>
<path d="M635.763 419.051C621.208 410.1 613.937 396.925 613.947 379.527C613.947 361.112 622.401 344.948 639.308 331.035C634.1 325.806 631.491 320.084 631.48 313.871C631.48 304.921 637.324 292.243 649.013 275.838C628.609 265.145 618.412 246.74 618.423 220.626C618.423 197.752 626.192 180.037 641.73 167.483C657.268 154.928 679.725 148.651 709.101 148.651C729.741 148.651 746.648 151.757 759.823 157.97C779.726 148.731 800.132 144.646 822.077 145.779V198.249H792.979C794.196 204.269 794.82 210.394 794.84 216.535C794.84 239.41 787.135 256.814 771.725 268.748C756.315 280.683 733.687 286.65 703.84 286.65C694.589 286.726 685.351 285.975 676.234 284.404V289.634C676.116 291.379 676.536 293.119 677.436 294.618C678.337 296.118 679.675 297.306 681.271 298.023C684.629 299.638 691.9 301.194 703.086 302.691L736.66 307.503C763.02 311.235 781.232 317.7 791.295 326.896C801.358 336.093 806.395 347.905 806.405 362.331C806.405 384.702 797.203 401.984 778.799 414.175C760.395 426.366 734.286 432.456 700.472 432.445C671.887 432.467 650.317 428.002 635.763 419.051ZM743.75 387.354C745.386 383.596 746.148 379.516 745.979 375.42C745.979 369.453 743.841 364.913 739.563 361.801C735.286 358.689 727.698 356.39 716.801 354.904L704.867 353.043C693.927 351.792 682.864 350.049 671.678 347.814C670.378 353.069 669.626 358.444 669.433 363.855C669.278 367.981 670.325 372.063 672.447 375.605C674.568 379.148 677.673 381.998 681.383 383.809C689.339 388.162 701.397 390.338 717.555 390.338C729.062 390.338 737.793 389.343 743.75 387.354ZM727.324 247.799C728.62 243.407 729.559 238.917 730.131 234.373C730.956 228.941 731.39 223.457 731.43 217.963C731.43 206.767 729.008 198.436 724.164 192.971C719.32 187.507 711.796 184.769 701.594 184.759C696.053 184.837 690.543 185.591 685.185 187.004C683.611 191.217 682.535 195.599 681.976 200.062C681.132 205.491 680.698 210.977 680.677 216.471C680.677 227.903 683.04 236.357 687.767 241.832C692.494 247.307 699.702 250.039 709.39 250.029C715.429 249.958 721.442 249.232 727.324 247.863V247.799Z" fill="#FF5470"/>
<path d="M823.52 325.437C807.726 307.792 799.828 283.426 799.828 252.338C799.828 230.694 803.683 212.108 811.394 196.58C818.514 181.683 829.949 169.271 844.213 160.954C858.393 152.741 874.931 148.64 893.827 148.65C921.91 148.65 943.479 157.601 958.536 175.503C973.593 193.404 980.742 218.888 979.983 251.954L866.59 272.807C870.076 283.244 874.99 290.89 881.332 295.745C887.673 300.6 896.046 303.038 906.452 303.06C915.121 302.877 923.748 301.802 932.197 299.851C942.46 297.651 952.554 294.724 962.402 291.093L970.984 327.987C961.776 334.949 949.842 340.665 935.181 345.135C920.802 349.568 905.842 351.833 890.796 351.856C861.73 351.899 839.305 343.092 823.52 325.437ZM918.819 220.626C918.316 211.183 915.643 204.285 910.799 199.933C905.954 195.581 899.158 193.404 890.411 193.404C883.461 193.366 876.545 194.371 869.895 196.388C864.613 208.875 862.191 222.385 862.804 235.929L918.819 220.626Z" fill="#FF5470"/>
<path d="M966.814 311.641L989.945 304.92V214.659C989.945 209.205 989.56 205.66 988.822 204.039C988.084 202.419 986.079 200.623 982.855 198.618L966.445 189.667L967.568 161.708L975.765 160.216C1008.34 153.8 1031.84 150.319 1046.26 149.773C1048.34 155.347 1049.95 161.082 1051.08 166.921C1063.06 161.175 1075.47 156.375 1088.2 152.564C1096.99 150.062 1106.08 148.745 1115.22 148.65C1154.79 148.65 1174.58 172.273 1174.58 219.519V292.617C1174.58 297.83 1174.96 301.327 1175.7 303.06C1176.44 304.792 1178.55 306.669 1182.03 308.658L1200 319.1L1198.4 347.076H1095.49L1093.63 311.641L1111.9 306.412V235.929C1112.09 228.079 1111.72 220.225 1110.78 212.429C1110.5 210.367 1109.82 208.38 1108.76 206.587C1107.71 204.794 1106.31 203.229 1104.64 201.986C1101.27 199.495 1095.39 198.249 1086.99 198.249C1075.55 198.551 1064.15 199.942 1052.97 202.403V292.665C1052.97 297.878 1053.35 301.375 1054.09 303.108C1054.83 304.84 1056.82 306.717 1060.06 308.706L1078.33 319.149L1076.84 347.124H968.675L966.814 311.641Z" fill="#FF5470"/>
<path d="M68.8313 137.663C106.846 137.663 137.663 106.846 137.663 68.8313C137.663 30.8168 106.846 0 68.8313 0C30.8168 0 0 30.8168 0 68.8313C0 106.846 30.8168 137.663 68.8313 137.663Z" fill="#FF5470"/>
</svg>
